<?xml version="1.0" encoding="UTF-8"?>
<svg version="1.1" xmlns="http://www.w3.org/2000/svg" width="260" height="256">
<path d="M0 0 C1.47823242 -0.0309375 1.47823242 -0.0309375 2.98632812 -0.0625 C10.10356118 -0.10023218 16.93263424 0.41581134 22.71875 4.93359375 C23.1621875 5.51238281 23.605625 6.09117188 24.0625 6.6875 C24.75859375 7.55181641 24.75859375 7.55181641 25.46875 8.43359375 C26.5625 10.25 26.5625 10.25 27.02734375 12.3984375 C27.29224609 13.31496094 27.29224609 13.31496094 27.5625 14.25 C29.20879712 14.88836011 30.85592188 15.52469457 32.5078125 16.1484375 C36.72344984 18.40853205 40.0798676 22.2068558 42.5625 26.25 C42.54832031 27.27738281 42.53414063 28.30476563 42.51953125 29.36328125 C42.53371094 30.31589844 42.54789062 31.26851562 42.5625 32.25 C44.37028658 33.98105853 44.37028658 33.98105853 46.8125 35.125 C53.697839 39.31232215 55.17304159 44.48245349 57.3125 52 C59.4071008 61.12647492 59.97455911 70.69823112 55.5625 79.25 C55.01207031 79.70246094 54.46164063 80.15492188 53.89453125 80.62109375 C53.45496094 81.15863281 53.01539063 81.69617188 52.5625 82.25 C52.83333457 84.25941776 53.17889711 86.2590304 53.5625 88.25 C53.37340324 90.91927895 53.12316261 93.48413287 52.75 96.125 C52.65307861 96.835354 52.55615723 97.54570801 52.45629883 98.27758789 C50.92445661 109.12512474 48.41782429 119.03468636 39.4765625 126.1640625 C36.2183796 128.01258259 33.27319273 128.11980026 29.5625 128.25 C28.69234591 124.62789515 28.43683756 121.1438584 28.32348633 117.42602539 C27.91766332 105.4090804 25.4482224 95.32964453 18.734375 85.17578125 C17.5625 83.25 17.5625 83.25 17.5625 81.25 C16.0775 80.755 16.0775 80.755 14.5625 80.25 C13.16015625 78.71875 13.16015625 78.71875 11.625 76.75 C7.71513419 72.08500989 3.08870937 68.78271319 -1.86328125 65.328125 C-4.30597853 63.35617514 -5.36134138 62.14584502 -6.4375 59.25 C-6.4375 59.91 -6.4375 60.57 -6.4375 61.25 C-7.00855469 61.47171875 -7.57960938 61.6934375 -8.16796875 61.921875 C-22.25917961 68.10498183 -34.30487699 81.28311958 -40.4375 95.25 C-43.95139754 105.80281254 -45.14287786 116.17220746 -45.4375 127.25 C-52.51176186 127.25 -57.69804641 122.14590872 -62.75 117.5 C-68.55578554 111.38132782 -70.64707762 105.19003868 -70.6875 96.8125 C-70.61978881 94.95769714 -70.5390484 93.10325832 -70.4375 91.25 C-70.12166352 88.27482427 -70.12166352 88.27482427 -71.8125 86.5625 C-75.32655602 81.56172797 -75.9796067 75.21317371 -75.4375 69.25 C-73.73133618 64.38743313 -71.38757337 60.42079338 -68.4375 56.25 C-69.0975 56.25 -69.7575 56.25 -70.4375 56.25 C-69.97976776 49.69346917 -68.76690681 44.69436743 -65.875 38.8125 C-65.51929932 38.07531738 -65.16359863 37.33813477 -64.79711914 36.57861328 C-61.74347051 30.46056609 -58.09556105 25.26929844 -53.4375 20.25 C-52.90898438 19.63125 -52.38046875 19.0125 -51.8359375 18.375 C-38.29649314 3.43492346 -19.16811972 0.099899 0 0 Z M-58.4375 72.25 C-58.7675 72.91 -59.0975 73.57 -59.4375 74.25 C-58.7775 74.25 -58.1175 74.25 -57.4375 74.25 C-57.7675 73.59 -58.0975 72.93 -58.4375 72.25 Z M47.5625 75.25 C47.5625 75.91 47.5625 76.57 47.5625 77.25 C48.2225 76.92 48.8825 76.59 49.5625 76.25 C48.9025 75.92 48.2425 75.59 47.5625 75.25 Z M50.5625 79.25 C51.5625 81.25 51.5625 81.25 51.5625 81.25 Z M-64.4375 80.25 C-63.4375 82.25 -63.4375 82.25 -63.4375 82.25 Z " fill="#FC6634" transform="translate(138.4375,65.75)"/>
<path d="M0 0 C4.91745262 0.28926192 8.52181716 2.67953905 12 6 C18.4319317 14.82093491 20.04933512 27.41920423 19 38 C18.4211598 41.27044713 17.71410134 44.13688568 16 47 C12.8125 49.0625 12.8125 49.0625 10 50 C6 45.25 6 45.25 6 43 C4.68 43 3.36 43 2 43 C0.06450375 40.86508899 -1.58497089 38.82813664 -3.25 36.5 C-3.70890625 35.87996094 -4.1678125 35.25992188 -4.640625 34.62109375 C-5.77190761 33.08914855 -6.88748654 31.54562939 -8 30 C-4.06787183 28.68929061 -2.77398975 29.3307353 1 31 C5.3155058 33.98489151 8.61274299 36.75925131 10 42 C11.98 41.505 11.98 41.505 14 41 C14 32.09 14 23.18 14 14 C12.02 13.34 10.04 12.68 8 12 C8.33 9.69 8.66 7.38 9 5 C7.906875 4.896875 6.81375 4.79375 5.6875 4.6875 C2.14440371 4.02692273 1.06756277 3.7972908 -1 1 C-0.67 0.67 -0.34 0.34 0 0 Z M8 43 C8 43.66 8 44.32 8 45 C8.66 44.67 9.32 44.34 10 44 C9.34 43.67 8.68 43.34 8 43 Z " fill="#E8693E" transform="translate(178,98)"/>
<path d="M0 0 C3.70658975 3.40605545 5.84217348 6.47883967 8 11 C8.66 11.33 9.32 11.66 10 12 C10.80588208 14.36290707 11.46875341 16.64470079 12.0625 19.0625 C12.2387793 19.76826172 12.41505859 20.47402344 12.59667969 21.20117188 C14.3618935 28.74921278 14.79450466 36.27337535 15 44 C16.32 44 17.64 44 19 44 C19.33 42.35 19.66 40.7 20 39 C21.485 39.495 21.485 39.495 23 40 C23.12375 39.236875 23.2475 38.47375 23.375 37.6875 C24 35 24 35 26 32 C26.66 32 27.32 32 28 32 C28 30.68 28 29.36 28 28 C28.66 28 29.32 28 30 28 C30.09087891 27.06027344 30.09087891 27.06027344 30.18359375 26.1015625 C30.26738281 25.28429687 30.35117188 24.46703125 30.4375 23.625 C30.55931641 22.40683594 30.55931641 22.40683594 30.68359375 21.1640625 C31 19 31 19 32 17 C32.23172827 14.45384991 32.41894529 11.92603775 32.5625 9.375 C32.62727539 8.31539062 32.62727539 8.31539062 32.69335938 7.234375 C32.79944751 5.48981463 32.90022889 3.74493303 33 2 C33.66 2 34.32 2 35 2 C36.20636853 6.40623965 35.80945736 10.35678707 35.1875 14.8125 C35.09057861 15.52736572 34.99365723 16.24223145 34.89379883 16.97875977 C33.36904751 27.84555946 30.87170301 37.77162668 21.9140625 44.9140625 C18.6558796 46.76258259 15.71069273 46.86980026 12 47 C11.12984591 43.37789515 10.87433756 39.8938584 10.76098633 36.17602539 C10.35516332 24.1590804 7.8857224 14.07964453 1.171875 3.92578125 C0 2 0 2 0 0 Z " fill="#DD6C47" transform="translate(156,147)"/>
<path d="M0 0 C-3.36936434 2.83026605 -6.96089125 4.31091816 -11 6 C-14.16442767 7.65722487 -14.16442767 7.65722487 -14.75 10.375 C-16.27561249 13.57878624 -18.11042874 14.3815069 -21.1953125 15.96875 C-23.93336684 17.53335248 -25.87143588 19.6988496 -28 22 C-29.33333333 23.33333333 -30.66666667 24.66666667 -32 26 C-32.515625 26.5775 -33.03125 27.155 -33.5625 27.75 C-35 29 -35 29 -38 29 C-37.77699219 29.59296875 -37.55398437 30.1859375 -37.32421875 30.796875 C-37 33 -37 33 -38.14453125 34.703125 C-38.69496094 35.21359375 -39.24539062 35.7240625 -39.8125 36.25 C-40.62654297 37.03117187 -40.62654297 37.03117187 -41.45703125 37.828125 C-43 39 -43 39 -45 39 C-45.33 39.99 -45.66 40.98 -46 42 C-46.66 41.01 -47.32 40.02 -48 39 C-47.3125 36.75 -47.3125 36.75 -46 34 C-45.566875 32.845 -45.13375 31.69 -44.6875 30.5 C-42.90365438 26.80017205 -41.11458669 24.64739869 -38 22 C-37.01 21.67 -36.02 21.34 -35 21 C-35 20.34 -35 19.68 -35 19 C-33 17 -31 15 -29 13 C-29 13.99 -29 14.98 -29 16 C-29.33 16.33 -29.66 16.66 -30 17 C-28.1875 15 -28.1875 15 -26 13 C-25.01 13 -24.02 13 -23 13 C-23 12.34 -23 11.68 -23 11 C-21.35 10.34 -19.7 9.68 -18 9 C-18 8.34 -18 7.68 -18 7 C-15.56876731 5.63336613 -13.13113837 4.2816133 -10.6875 2.9375 C-9.65206055 2.35258789 -9.65206055 2.35258789 -8.59570312 1.75585938 C-3.33984375 -1.11328125 -3.33984375 -1.11328125 0 0 Z M-41 30 C-41.33 30.66 -41.66 31.32 -42 32 C-41.34 32 -40.68 32 -40 32 C-40.33 31.34 -40.66 30.68 -41 30 Z " fill="#F06F42" transform="translate(121,108)"/>
<path d="M0 0 C0 3 0 3 -1.57421875 4.61328125 C-2.27160156 5.17402344 -2.96898438 5.73476562 -3.6875 6.3125 C-8.4110147 10.29327123 -12.3010145 13.96082368 -14.625 19.8125 C-15.07875 20.864375 -15.5325 21.91625 -16 23 C-16.99 23.33 -17.98 23.66 -19 24 C-20.22969878 27.51190809 -20.22969878 27.51190809 -21 31 C-18.7763932 32.2981424 -18.7763932 32.2981424 -15 32 C-14.01 32 -13.02 32 -12 32 C-11.773125 31.195625 -11.54625 30.39125 -11.3125 29.5625 C-10.879375 28.716875 -10.44625 27.87125 -10 27 C-7.375 26.1875 -7.375 26.1875 -5 26 C-4.67 27.65 -4.34 29.3 -4 31 C-8.75 34 -8.75 34 -11 34 C-11.268125 34.639375 -11.53625 35.27875 -11.8125 35.9375 C-13 38 -13 38 -16 39 C-16.33 39.99 -16.66 40.98 -17 42 C-19.28515625 42.94921875 -19.28515625 42.94921875 -22.0625 43.6875 C-22.98160156 43.93886719 -23.90070313 44.19023438 -24.84765625 44.44921875 C-25.55792969 44.63097656 -26.26820312 44.81273437 -27 45 C-26.54226776 38.44346917 -25.32940681 33.44436743 -22.4375 27.5625 C-22.08179932 26.82531738 -21.72609863 26.08813477 -21.35961914 25.32861328 C-16.46561227 15.52337092 -9.19712703 6.13141802 0 0 Z " fill="#ED663B" transform="translate(95,77)"/>
<path d="M0 0 C-2.26727333 1.17407021 -4.53834624 2.33939739 -6.8125 3.5 C-7.45509766 3.83386719 -8.09769531 4.16773437 -8.75976562 4.51171875 C-11.69547699 6.00239084 -13.66126517 7 -17 7 C-17.495 7.495 -17.99 7.99 -18.5 8.5 C-18.995 8.995 -19.49 9.49 -20 10 C-20.99 10 -21.98 10 -23 10 C-22.88658466 12.40877257 -22.88658466 12.40877257 -22 15 C-20.36368108 16.04892238 -18.69514137 17.04906703 -17 18 C-15.6875 20.1875 -15.6875 20.1875 -15 22 C-18.00807357 20.60073881 -20.5527355 18.94941211 -23.1875 16.9375 C-23.88230469 16.41027344 -24.57710937 15.88304687 -25.29296875 15.33984375 C-27 14 -27 14 -28 13 C-35.49107412 16.25290901 -41.15506805 20.31036818 -47 26 C-48 23 -48 23 -46.8125 20.5 C-45.01575988 18.02173777 -43.6432707 16.52188313 -41 15 C-39.68 15 -38.36 15 -37 15 C-37 14.34 -37 13.68 -37 13 C-35.2421875 12.0234375 -33.484375 11.046875 -31.7265625 10.0703125 C-29.8387386 8.99102726 -29.8387386 8.99102726 -28 7 C-24.375 6.875 -24.375 6.875 -21 7 C-21 6.34 -21 5.68 -21 5 C-19.91332031 4.72736328 -19.91332031 4.72736328 -18.8046875 4.44921875 C-14.48518093 3.32614704 -10.554268 2.2821728 -6.5625 0.25 C-3.6367095 -1.17721488 -2.97066384 -0.933457 0 0 Z " fill="#E16F47" transform="translate(160,114)"/>
<path d="M0 0 C0.95801514 -0.01369629 1.91603027 -0.02739258 2.90307617 -0.04150391 C10.21230671 0.00545998 17.69664504 0.69935334 23.125 6.0625 C24.0840625 7.2071875 24.0840625 7.2071875 25.0625 8.375 C24.7325 9.035 24.4025 9.695 24.0625 10.375 C23.49402344 10.02566406 22.92554688 9.67632812 22.33984375 9.31640625 C17.52267136 6.47757177 13.7053074 4.49015933 8.0625 4.375 C7.4025 5.035 6.7425 5.695 6.0625 6.375 C5.0725 5.715 4.0825 5.055 3.0625 4.375 C1.7425 4.375 0.4225 4.375 -0.9375 4.375 C-0.9375 3.715 -0.9375 3.055 -0.9375 2.375 C-1.60652344 2.50777344 -2.27554688 2.64054687 -2.96484375 2.77734375 C-11.93756274 4.42736053 -20.84260952 4.96551441 -29.9375 5.375 C-23.61084602 -0.95165398 -8.40078107 0.06091937 0 0 Z " fill="#DB734F" transform="translate(138.9375,65.625)"/>
<path d="M0 0 C0.66 0.33 1.32 0.66 2 1 C1.38511719 2.00160156 0.77023438 3.00320312 0.13671875 4.03515625 C-5.99855275 14.81041272 -6.67744786 27.8720395 -7 40 C-14.08395836 40 -19.20554851 34.97207963 -24.0625 30.125 C-25.0496236 29.09087051 -26.03199346 28.05204569 -27 27 C-26.01 25.515 -26.01 25.515 -25 24 C-24.34 24 -23.68 24 -23 24 C-22.814375 24.886875 -22.62875 25.77375 -22.4375 26.6875 C-20.22881487 31.77707877 -16.42446696 34.01296494 -11.37817383 36.06738281 C-10.20097778 36.52902832 -10.20097778 36.52902832 -9 37 C-8.98541748 36.26885986 -8.97083496 35.53771973 -8.95581055 34.78442383 C-8.8811709 31.45992629 -8.78456199 28.13641533 -8.6875 24.8125 C-8.66494141 23.66201172 -8.64238281 22.51152344 -8.61914062 21.32617188 C-8.58369141 20.21435547 -8.54824219 19.10253906 -8.51171875 17.95703125 C-8.48553467 16.93585205 -8.45935059 15.91467285 -8.43237305 14.86254883 C-7.93888449 11.59538153 -6.9726498 9.63473457 -5 7 C-4.34 7 -3.68 7 -3 7 C-2.690625 6.030625 -2.38125 5.06125 -2.0625 4.0625 C-1 1 -1 1 0 0 Z " fill="#D67B5A" transform="translate(100,153)"/>
<path d="M0 0 C0.33 0.99 0.66 1.98 1 3 C1.66 2.01 2.32 1.02 3 0 C3.99 0.33 4.98 0.66 6 1 C2.65030675 6.90184049 2.65030675 6.90184049 0 9 C-0.99 9 -1.98 9 -3 9 C-2.77699219 9.59296875 -2.55398437 10.1859375 -2.32421875 10.796875 C-2 13 -2 13 -3.14453125 14.703125 C-3.97017578 15.46882812 -3.97017578 15.46882812 -4.8125 16.25 C-5.35519531 16.77078125 -5.89789063 17.2915625 -6.45703125 17.828125 C-8 19 -8 19 -10 19 C-10.33 19.99 -10.66 20.98 -11 22 C-11.66 21.01 -12.32 20.02 -13 19 C-12.3125 16.75 -12.3125 16.75 -11 14 C-10.3503125 12.2675 -10.3503125 12.2675 -9.6875 10.5 C-7.36091754 5.67449565 -4.41573165 2.9438211 0 0 Z M-6 10 C-6.33 10.66 -6.66 11.32 -7 12 C-6.34 12 -5.68 12 -5 12 C-5.33 11.34 -5.66 10.68 -6 10 Z " fill="#E66D46" transform="translate(86,128)"/>
<path d="M0 0 C4.91745262 0.28926192 8.52181716 2.67953905 12 6 C18.61743392 15.07533794 19.51783459 27.1830108 19 38 C18.34 38 17.68 38 17 38 C16.95101562 36.85402344 16.90203125 35.70804688 16.8515625 34.52734375 C16.77647199 32.99737465 16.70092694 31.46742782 16.625 29.9375 C16.5940625 29.18533203 16.563125 28.43316406 16.53125 27.65820312 C16.28004237 22.82245627 15.73296495 18.54317839 14 14 C10.99405579 12.46853622 10.99405579 12.46853622 8 12 C8.33 9.69 8.66 7.38 9 5 C7.906875 4.896875 6.81375 4.79375 5.6875 4.6875 C2.14440371 4.02692273 1.06756277 3.7972908 -1 1 C-0.67 0.67 -0.34 0.34 0 0 Z " fill="#D77458" transform="translate(178,98)"/>
<path d="M0 0 C0.66 0.33 1.32 0.66 2 1 C3.10882349 4.32647048 2.85222597 5.42592467 2.0625 8.75 C1.14625008 12.97836955 0.72448957 16.68366989 1 21 C1.33 21.33 1.66 21.66 2 22 C2.14115161 24.67058851 2.04247107 27.32432238 2 30 C-1.17432368 27.40282608 -2.09388894 24.9729485 -3 21 C-3.16428143 16.99365279 -3.10408491 13.00726913 -3 9 C-3 8.01 -3 7.02 -3 6 C-2.04788888 3.97676387 -1.05226728 1.97300116 0 0 Z " fill="#DF6D45" transform="translate(71,148)"/>
<path d="M0 0 C4.06809929 0.52537408 6.17603456 1.61400461 9.1875 4.375 C9.86167969 4.98085937 10.53585938 5.58671875 11.23046875 6.2109375 C13.6344604 8.64146327 14.96328185 10.2105598 15.125 13.6875 C15.08375 14.450625 15.0425 15.21375 15 16 C10.42106764 17.41155058 7.64223507 16.47906992 3.25 14.75 C2.10015625 14.31171875 0.9503125 13.8734375 -0.234375 13.421875 C-3 12 -3 12 -4 9 C2.625 8.875 2.625 8.875 6 10 C6 10.66 6 11.32 6 12 C6.598125 12.144375 7.19625 12.28875 7.8125 12.4375 C9.56150404 12.8872439 11.28677023 13.42892341 13 14 C11.00632828 8.76661174 8.30099148 6.38727901 3.83984375 3.296875 C2 2 2 2 0 0 Z " fill="#E17850" transform="translate(166,81)"/>
<path d="M0 0 C0.66 0 1.32 0 2 0 C2 0.66 2 1.32 2 2 C2.99 2 3.98 2 5 2 C5 2.66 5 3.32 5 4 C5.99 4.33 6.98 4.66 8 5 C8.625 6.875 8.625 6.875 9 9 C9.33 9.99 9.66 10.98 10 12 C12.31 12 14.62 12 17 12 C17.33 10.68 17.66 9.36 18 8 C18.33 8 18.66 8 19 8 C19.375 10.25 19.375 10.25 19 13 C16 15.3125 16 15.3125 13 17 C7.19794344 11.35475578 7.19794344 11.35475578 5 8 C5 7.34 5 6.68 5 6 C4.360625 5.7525 3.72125 5.505 3.0625 5.25 C1 4 1 4 0.25 1.875 C0.1675 1.25625 0.085 0.6375 0 0 Z " fill="#E5724A" transform="translate(176,131)"/>
<path d="M0 0 C1 3 1 3 0.22265625 4.76953125 C-0.16019531 5.44371094 -0.54304688 6.11789063 -0.9375 6.8125 C-4.48522579 14.26272416 -3.82609008 23.10178927 -2 31 C-5.71900399 28.29526982 -6.28622094 24.29060522 -7 20 C-7.70506444 11.96226534 -4.48903094 6.34656098 0 0 Z " fill="#D16F50" transform="translate(70,122)"/>
<path d="M0 0 C0 3 0 3 -1.57421875 4.61328125 C-2.27160156 5.17402344 -2.96898438 5.73476562 -3.6875 6.3125 C-8.4110147 10.29327123 -12.3010145 13.96082368 -14.625 19.8125 C-15.07875 20.864375 -15.5325 21.91625 -16 23 C-16.99 23.33 -17.98 23.66 -19 24 C-20.22969878 27.51190809 -20.22969878 27.51190809 -21 31 C-21.66 31 -22.32 31 -23 31 C-19.67060457 18.34829738 -10.16306567 7.81774282 0 0 Z " fill="#D87556" transform="translate(95,77)"/>
<path d="M0 0 C0.66 0 1.32 0 2 0 C2 1.98 2 3.96 2 6 C3.32 6 4.64 6 6 6 C5.4375 8.375 5.4375 8.375 4 11 C0.375 12.3125 0.375 12.3125 -3 13 C-2.88490339 11.58249437 -2.75746342 10.16598831 -2.625 8.75 C-2.55539063 7.96109375 -2.48578125 7.1721875 -2.4140625 6.359375 C-1.98492887 3.914123 -1.21399362 2.15163097 0 0 Z " fill="#DC7951" transform="translate(71,109)"/>
<path d="M0 0 C4.06815373 1.84916079 7.0094833 3.66442368 10 7 C9.67 7.66 9.34 8.32 9 9 C8.14728516 8.47599609 8.14728516 8.47599609 7.27734375 7.94140625 C2.46017136 5.10257177 -1.3571926 3.11515933 -7 3 C-7.66 3.66 -8.32 4.32 -9 5 C-9.99 4.34 -10.98 3.68 -12 3 C-13.32 3 -14.64 3 -16 3 C-16 2.34 -16 1.68 -16 1 C-13.70839681 0.97307516 -11.41670454 0.95363876 -9.125 0.9375 C-7.84882813 0.92589844 -6.57265625 0.91429688 -5.2578125 0.90234375 C-2 1 -2 1 0 2 C0 1.34 0 0.68 0 0 Z " fill="#EF6D36" transform="translate(154,67)"/>
<path d="M0 0 C-2.26727333 1.17407021 -4.53834624 2.33939739 -6.8125 3.5 C-7.45509766 3.83386719 -8.09769531 4.16773437 -8.75976562 4.51171875 C-11.69547699 6.00239084 -13.66126517 7 -17 7 C-17.495 7.495 -17.99 7.99 -18.5 8.5 C-18.995 8.995 -19.49 9.49 -20 10 C-20.99 10 -21.98 10 -23 10 C-23.66 9.34 -24.32 8.68 -25 8 C-23.68 7.67 -22.36 7.34 -21 7 C-21 6.34 -21 5.68 -21 5 C-19.91332031 4.72736328 -19.91332031 4.72736328 -18.8046875 4.44921875 C-14.48518093 3.32614704 -10.554268 2.2821728 -6.5625 0.25 C-3.6367095 -1.17721488 -2.97066384 -0.933457 0 0 Z " fill="#EC7343" transform="translate(160,114)"/>
<path d="M0 0 C0.33 0 0.66 0 1 0 C1.33 3.3 1.66 6.6 2 10 C3.65 10.33 5.3 10.66 7 11 C7.33 12.65 7.66 14.3 8 16 C7.67 15.34 7.34 14.68 7 14 C6.34 14 5.68 14 5 14 C4.34 15.65 3.68 17.3 3 19 C0.25902195 16.25902195 0.01426141 14.49002207 -0.09765625 10.64453125 C-0.08605469 9.37996094 -0.07445313 8.11539063 -0.0625 6.8125 C-0.05347656 5.54019531 -0.04445313 4.26789063 -0.03515625 2.95703125 C-0.02355469 1.98121094 -0.01195313 1.00539062 0 0 Z " fill="#EE6739" transform="translate(66,134)"/>
<path d="M0 0 C0.33 0.66 0.66 1.32 1 2 C-2 4 -2 4 -6 4 C-6 4.66 -6 5.32 -6 6 C-8.65228812 7.07525194 -11.28368454 8.09456151 -14 9 C-14 10.65 -14 12.3 -14 14 C-14.99 13.67 -15.98 13.34 -17 13 C-17.33 11.35 -17.66 9.7 -18 8 C-17.01 7.34 -16.02 6.68 -15 6 C-14.01 6.33 -13.02 6.66 -12 7 C-11.67 6.01 -11.34 5.02 -11 4 C-9.375 3.5 -9.375 3.5 -7 3 C-4.63681559 2.06182593 -2.32602092 1.02881695 0 0 Z " fill="#ED6336" transform="translate(154,116)"/>
<path d="M0 0 C0.66 0 1.32 0 2 0 C-0.10742616 7.37599156 -3.5840389 12.68156464 -10 17 C-12.73276365 17.67085895 -15.16801309 17.85351792 -18 18 C-18.33 16.68 -18.66 15.36 -19 14 C-18.34 14 -17.68 14 -17 14 C-17 14.99 -17 15.98 -17 17 C-8.05947849 12.82923562 -3.58330092 9.36863034 0 0 Z " fill="#CD7253" transform="translate(186,176)"/>
<path d="M0 0 C3.9704118 2.09549511 6.48066577 4.267653 9 8 C9 8.99 9 9.98 9 11 C6.61435923 10.42415568 4.33317216 9.77772405 2 9 C2 8.34 2 7.68 2 7 C1.01 6.67 0.02 6.34 -1 6 C-0.34 5.67 0.32 5.34 1 5 C0.67 3.35 0.34 1.7 0 0 Z " fill="#F1653A" transform="translate(170,84)"/>
<path d="M0 0 C0.66 0 1.32 0 2 0 C2.185625 0.886875 2.37125 1.77375 2.5625 2.6875 C4.83730394 7.92943952 8.84532764 10.03727405 13.9375 12.3125 C14.618125 12.539375 15.29875 12.76625 16 13 C16 13.66 16 14.32 16 15 C10.16564208 14.65834841 7.58648662 12.3549701 3.625 8.4375 C2.80708984 7.65729492 2.80708984 7.65729492 1.97265625 6.86132812 C0.63791788 5.58513091 -0.68253171 4.29401821 -2 3 C-1.34 2.01 -0.68 1.02 0 0 Z " fill="#DA6B4C" transform="translate(75,177)"/>
<path d="M0 0 C0.66 0 1.32 0 2 0 C3.23522262 4.47658694 2.79793221 8.5320133 2.1875 13.0625 C2.10435547 13.76955078 2.02121094 14.47660156 1.93554688 15.20507812 C1.44549848 19.01457843 0.74642191 21.50715619 -1 25 C-0.67 16.75 -0.34 8.5 0 0 Z " fill="#CF7C5E" transform="translate(189,149)"/>
<path d="M0 0 C0 0.99 0 1.98 0 3 C-1.45537568 3.83848804 -2.91440373 4.67063934 -4.375 5.5 C-5.59316406 6.19609375 -5.59316406 6.19609375 -6.8359375 6.90625 C-9 8 -9 8 -11 8 C-11 8.66 -11 9.32 -11 10 C-12.65 10.66 -14.3 11.32 -16 12 C-16 12.66 -16 13.32 -16 14 C-16.66 14 -17.32 14 -18 14 C-17.67 12.68 -17.34 11.36 -17 10 C-16.34 10 -15.68 10 -15 10 C-14.67 9.01 -14.34 8.02 -14 7 C-11.65567452 5.64672435 -9.37973289 4.4560284 -6.9375 3.3125 C-6.27427734 2.99216797 -5.61105469 2.67183594 -4.92773438 2.34179688 C-3.28949142 1.5521402 -1.64528546 0.77487638 0 0 Z " fill="#EF6738" transform="translate(114,107)"/>
<path d="M0 0 C0.33 0.99 0.66 1.98 1 3 C1.66 2.01 2.32 1.02 3 0 C3.99 0.33 4.98 0.66 6 1 C4.28032649 4.02990095 2.70761694 6.76327296 0 9 C-0.66 9 -1.32 9 -2 9 C-2 7.68 -2 6.36 -2 5 C-2.99 5 -3.98 5 -5 5 C-3.35 3.35 -1.7 1.7 0 0 Z " fill="#E2693A" transform="translate(86,128)"/>
<path d="M0 0 C0.66 0.33 1.32 0.66 2 1 C1.360625 2.0725 0.72125 3.145 0.0625 4.25 C-1.40601273 6.80822182 -2.52854542 9.05340886 -3 12 C-3.99 12 -4.98 12 -6 12 C-6.33 14.64 -6.66 17.28 -7 20 C-7.33 20 -7.66 20 -8 20 C-8.44539877 11.2404908 -8.44539877 11.2404908 -5 7 C-4.34 7 -3.68 7 -3 7 C-2.690625 6.030625 -2.38125 5.06125 -2.0625 4.0625 C-1 1 -1 1 0 0 Z " fill="#DC6F4C" transform="translate(100,153)"/>
<path d="M0 0 C-3.37261112 2.83299334 -6.97382375 4.27449589 -11 6 C-11.7425 6.556875 -12.485 7.11375 -13.25 7.6875 C-15 9 -15 9 -18 9 C-18 8.34 -18 7.68 -18 7 C-15.56876731 5.63336613 -13.13113837 4.2816133 -10.6875 2.9375 C-9.99720703 2.54755859 -9.30691406 2.15761719 -8.59570312 1.75585938 C-3.33984375 -1.11328125 -3.33984375 -1.11328125 0 0 Z " fill="#F87343" transform="translate(121,108)"/>
<path d="M0 0 C-10.39836449 5.32009346 -10.39836449 5.32009346 -16 5 C-12.44029192 0.87823275 -5.22733058 -2.61366529 0 0 Z M-18 5 C-17.34 5 -16.68 5 -16 5 C-16 5.66 -16 6.32 -16 7 C-17.32 7.33 -18.64 7.66 -20 8 C-19.34 7.01 -18.68 6.02 -18 5 Z " fill="#EC6837" transform="translate(155,114)"/>
<path d="M0 0 C0.99 0 1.98 0 3 0 C2.63030147 2.65614176 2.29524408 3.74758254 0.22265625 5.51953125 C-0.49019531 5.94621094 -1.20304687 6.37289062 -1.9375 6.8125 C-2.64777344 7.25207031 -3.35804687 7.69164063 -4.08984375 8.14453125 C-5.03537109 8.56798828 -5.03537109 8.56798828 -6 9 C-6.66 8.67 -7.32 8.34 -8 8 C-3.375 3.125 -3.375 3.125 0 2 C0 1.34 0 0.68 0 0 Z " fill="#ED6937" transform="translate(103,117)"/>
<path d="M0 0 C0.99 0.33 1.98 0.66 3 1 C1.70910257 2.4590143 0.41725561 3.91718851 -0.875 5.375 C-1.59429687 6.18710938 -2.31359375 6.99921875 -3.0546875 7.8359375 C-4.33295938 9.25795079 -5.64794586 10.64794586 -7 12 C-7.66 12 -8.32 12 -9 12 C-8.67 11.01 -8.34 10.02 -8 9 C-7.34 9 -6.68 9 -6 9 C-5.7525 8.443125 -5.505 7.88625 -5.25 7.3125 C-3.78393985 4.60028873 -1.97010529 2.36412635 0 0 Z " fill="#D37456" transform="translate(109,140)"/>
<path d="M0 0 C0 3.91912822 -1.5724614 5.04143734 -4 8 C-4 8.66 -4 9.32 -4 10 C-6.5 11.625 -6.5 11.625 -9 13 C-8.51286902 8.58489226 -7.14946803 6.69553355 -3.9375 3.6875 C-3.20402344 2.99011719 -2.47054687 2.29273437 -1.71484375 1.57421875 C-1.14894531 1.05472656 -0.58304688 0.53523438 0 0 Z " fill="#EE6639" transform="translate(92,81)"/>
<path d="M0 0 C0 0.66 0 1.32 0 2 C0.66 2.33 1.32 2.66 2 3 C1.43410156 3.13277344 0.86820313 3.26554687 0.28515625 3.40234375 C-0.81505859 3.66724609 -0.81505859 3.66724609 -1.9375 3.9375 C-2.66839844 4.11152344 -3.39929688 4.28554687 -4.15234375 4.46484375 C-5.99969898 4.83887569 -5.99969898 4.83887569 -7 6 C-8.66617115 6.04063832 -10.33388095 6.042721 -12 6 C-4.8 0 -4.8 0 0 0 Z " fill="#D8724F" transform="translate(108,71)"/>
<path d="M0 0 C3.84174552 0.54882079 5.42558923 2.18423822 8 5 C8.7425 5.7425 9.485 6.485 10.25 7.25 C10.8275 7.8275 11.405 8.405 12 9 C8.23396179 9 7.22857351 7.92592757 4.3125 5.625 C3.10013672 4.68527344 3.10013672 4.68527344 1.86328125 3.7265625 C1.24839844 3.15679687 0.63351563 2.58703125 0 2 C0 1.34 0 0.68 0 0 Z " fill="#CA6D55" transform="translate(133,126)"/>
<path d="M0 0 C3.93673644 1.31224548 6.22719294 2.91910327 9 6 C8.67 6.66 8.34 7.32 8 8 C1.23076923 4.55384615 1.23076923 4.55384615 0.0625 1.75 C0.041875 1.1725 0.02125 0.595 0 0 Z " fill="#D17152" transform="translate(155,68)"/>
<path d="M0 0 C0.66 0.33 1.32 0.66 2 1 C2.33 1.99 2.66 2.98 3 4 C1.0625 6.6875 1.0625 6.6875 -1 9 C-1 8.01 -1 7.02 -1 6 C-1.66 5.67 -2.32 5.34 -3 5 C-2.01 3.35 -1.02 1.7 0 0 Z " fill="#E37047" transform="translate(71,148)"/>
<path d="M0 0 C3.15835107 1.39750048 5.32272825 3.05198234 7.75 5.5 C8.67039063 6.41265625 8.67039063 6.41265625 9.609375 7.34375 C11 9 11 9 11 11 C7.58540447 9.86180149 6.6675842 8.75994482 4.375 6.0625 C3.76398438 5.35222656 3.15296875 4.64195312 2.5234375 3.91015625 C1 2 1 2 0 0 Z " fill="#CB6A4E" transform="translate(145,136)"/>
<path d="M0 0 C1.98 1.65 3.96 3.3 6 5 C5.67 5.99 5.34 6.98 5 8 C3.02 7.34 1.04 6.68 -1 6 C-0.67 4.02 -0.34 2.04 0 0 Z " fill="#ED713E" transform="translate(187,104)"/>
<path d="M0 0 C0.99 0 1.98 0 3 0 C3 2 3 2 0.5 4.625 C-0.325 5.40875 -1.15 6.1925 -2 7 C-2.99 6.67 -3.98 6.34 -5 6 C-4.34 4.68 -3.68 3.36 -3 2 C-2.01 2 -1.02 2 0 2 C0 1.34 0 0.68 0 0 Z " fill="#EB7341" transform="translate(83,107)"/>
<path d="M0 0 C2 3.75 2 3.75 2 6 C3.32 6.66 4.64 7.32 6 8 C3.69 7.67 1.38 7.34 -1 7 C-1.04254356 5.00045254 -1.04080783 2.99958364 -1 1 C-0.67 0.67 -0.34 0.34 0 0 Z " fill="#E46D4D" transform="translate(164,76)"/>
<path d="M0 0 C0.33 0 0.66 0 1 0 C1.3125 2.3125 1.3125 2.3125 1 5 C-1.5 6.8125 -1.5 6.8125 -4 8 C-4.66 6.68 -5.32 5.36 -6 4 C-4.35 4 -2.7 4 -1 4 C-0.67 2.68 -0.34 1.36 0 0 Z " fill="#D0775C" transform="translate(194,139)"/>
<path d="M0 0 C0.66 0 1.32 0 2 0 C2.38218767 1.65614657 2.71395102 3.32457024 3 5 C2.67 5.33 2.34 5.66 2 6 C1.63239269 8.32817964 1.29758419 10.6618385 1 13 C0.67 13 0.34 13 0 13 C0 8.71 0 4.42 0 0 Z " fill="#E17247" transform="translate(189,149)"/>
<path d="M0 0 C0.66 1.32 1.32 2.64 2 4 C-0.31 5.98 -2.62 7.96 -5 10 C-4.67 8.68 -4.34 7.36 -4 6 C-3.34 5.67 -2.68 5.34 -2 5 C-1.27840576 3.35636866 -0.60648579 1.68949614 0 0 Z " fill="#E6683D" transform="translate(82,137)"/>
<path d="M0 0 C1 3 1 3 -0.21484375 5.48046875 C-0.78332031 6.37378906 -1.35179688 7.26710937 -1.9375 8.1875 C-2.50339844 9.08855469 -3.06929688 9.98960937 -3.65234375 10.91796875 C-4.09707031 11.60503906 -4.54179688 12.29210937 -5 13 C-5.33 12.01 -5.66 11.02 -6 10 C-4.17811188 6.48187121 -2.19549682 3.29324523 0 0 Z " fill="#CF775E" transform="translate(70,122)"/>
<path d="M0 0 C1.5 1.3125 1.5 1.3125 3 3 C3 3.99 3 4.98 3 6 C0.61435923 5.42415568 -1.66682784 4.77772405 -4 4 C-3.67 3.34 -3.34 2.68 -3 2 C-2.01 2 -1.02 2 0 2 C0 1.34 0 0.68 0 0 Z " fill="#E8693F" transform="translate(176,89)"/>
<path d="M0 0 C3.3 0 6.6 0 10 0 C7.31143836 1.79237442 5.0466145 2.98446183 2 4 C1.34 3.67 0.68 3.34 0 3 C0 2.01 0 1.02 0 0 Z " fill="#E96235" transform="translate(108,70)"/>
<path d="M0 0 C2.97 1.98 2.97 1.98 6 4 C5.01 4.495 5.01 4.495 4 5 C3.67 5.99 3.34 6.98 3 8 C3 7.01 3 6.02 3 5 C2.01 4.67 1.02 4.34 0 4 C0 2.68 0 1.36 0 0 Z " fill="#F0613B" transform="translate(185,144)"/>
<path d="M0 0 C1.32 0 2.64 0 4 0 C3.25 2.4375 3.25 2.4375 2 5 C-0.125 5.8125 -0.125 5.8125 -2 6 C-1.34 4.02 -0.68 2.04 0 0 Z " fill="#EB7550" transform="translate(73,115)"/>
<path d="M0 0 C0.66 0.66 1.32 1.32 2 2 C1.625 4.625 1.625 4.625 1 7 C0.01 6.67 -0.98 6.34 -2 6 C-1.125 1.125 -1.125 1.125 0 0 Z " fill="#EC693B" transform="translate(162,75)"/>
<path d="" fill="#FFFFFF" transform="translate(0,0)"/>
<path d="" fill="#FFFFFF" transform="translate(0,0)"/>
<path d="" fill="#FFFFFF" transform="translate(0,0)"/>
<path d="" fill="#FFFFFF" transform="translate(0,0)"/>
<path d="" fill="#FFFFFF" transform="translate(0,0)"/>
<path d="" fill="#FFFFFF" transform="translate(0,0)"/>
<path d="" fill="#FFFFFF" transform="translate(0,0)"/>
<path d="" fill="#FFFFFF" transform="translate(0,0)"/>
<path d="" fill="#FFFFFF" transform="translate(0,0)"/>
<path d="" fill="#FFFFFF" transform="translate(0,0)"/>
<path d="" fill="#FFFFFF" transform="translate(0,0)"/>
<path d="" fill="#FFFFFF" transform="translate(0,0)"/>
<path d="" fill="#FFFFFF" transform="translate(0,0)"/>
<path d="" fill="#FFFFFF" transform="translate(0,0)"/>
<path d="" fill="#FFFFFF" transform="translate(0,0)"/>
<path d="" fill="#FFFFFF" transform="translate(0,0)"/>
<path d="" fill="#FFFFFF" transform="translate(0,0)"/>
<path d="" fill="#FFFFFF" transform="translate(0,0)"/>
<path d="" fill="#FFFFFF" transform="translate(0,0)"/>
<path d="" fill="#FFFFFF" transform="translate(0,0)"/>
<path d="" fill="#FFFFFF" transform="translate(0,0)"/>
<path d="" fill="#FFFFFF" transform="translate(0,0)"/>
<path d="" fill="#FFFFFF" transform="translate(0,0)"/>
<path d="" fill="#FFFFFF" transform="translate(0,0)"/>
<path d="" fill="#FFFFFF" transform="translate(0,0)"/>
<path d="" fill="#FFFFFF" transform="translate(0,0)"/>
<path d="" fill="#FFFFFF" transform="translate(0,0)"/>
<path d="" fill="#FFFFFF" transform="translate(0,0)"/>
<path d="" fill="#FFFFFF" transform="translate(0,0)"/>
<path d="" fill="#FFFFFF" transform="translate(0,0)"/>
<path d="" fill="#FFFFFF" transform="translate(0,0)"/>
<path d="" fill="#FFFFFF" transform="translate(0,0)"/>
<path d="" fill="#FFFFFF" transform="translate(0,0)"/>
<path d="" fill="#FFFFFF" transform="translate(0,0)"/>
<path d="" fill="#FFFFFF" transform="translate(0,0)"/>
<path d="" fill="#FFFFFF" transform="translate(0,0)"/>
<path d="" fill="#FFFFFF" transform="translate(0,0)"/>
<path d="" fill="#FFFFFF" transform="translate(0,0)"/>
<path d="" fill="#FFFFFF" transform="translate(0,0)"/>
<path d="" fill="#FFFFFF" transform="translate(0,0)"/>
<path d="" fill="#FFFFFF" transform="translate(0,0)"/>
<path d="" fill="#FFFFFF" transform="translate(0,0)"/>
<path d="" fill="#FFFFFF" transform="translate(0,0)"/>
<path d="" fill="#FFFFFF" transform="translate(0,0)"/>
<path d="" fill="#FFFFFF" transform="translate(0,0)"/>
<path d="" fill="#FFFFFF" transform="translate(0,0)"/>
<path d="" fill="#FFFFFF" transform="translate(0,0)"/>
<path d="" fill="#FFFFFF" transform="translate(0,0)"/>
<path d="" fill="#FFFFFF" transform="translate(0,0)"/>
<path d="" fill="#FFFFFF" transform="translate(0,0)"/>
<path d="" fill="#FFFFFF" transform="translate(0,0)"/>
<path d="" fill="#FFFFFF" transform="translate(0,0)"/>
<path d="" fill="#FFFFFF" transform="translate(0,0)"/>
<path d="" fill="#FFFFFF" transform="translate(0,0)"/>
<path d="" fill="#FFFFFF" transform="translate(0,0)"/>
<path d="" fill="#FFFFFF" transform="translate(0,0)"/>
<path d="" fill="#FFFFFF" transform="translate(0,0)"/>
<path d="" fill="#FFFFFF" transform="translate(0,0)"/>
<path d="" fill="#FFFFFF" transform="translate(0,0)"/>
<path d="" fill="#FFFFFF" transform="translate(0,0)"/>
<path d="" fill="#FFFFFF" transform="translate(0,0)"/>
<path d="" fill="#FFFFFF" transform="translate(0,0)"/>
<path d="" fill="#FFFFFF" transform="translate(0,0)"/>
<path d="" fill="#FFFFFF" transform="translate(0,0)"/>
<path d="" fill="#FFFFFF" transform="translate(0,0)"/>
<path d="" fill="#FFFFFF" transform="translate(0,0)"/>
</svg>
